<svg id="Layer_1" data-name="Layer 1" xmlns="http://www.w3.org/2000/svg" viewBox="0 0 237.11 121.7"><defs><style>.cls-1{fill:#888;stroke:#fff;stroke-miterlimit:10;stroke-width:2.5px;}</style></defs><title>hd quality</title><path class="cls-1" d="M232.74,62.39H206.42a7.47,7.47,0,0,1-1-.21A21.09,21.09,0,0,1,204,60.07l-5.71-13.52c-2.73-6.48-6.53-7.44-8.54-7.44s-5.81,1-8.55,7.44l-7.86,18.6c-1.16,2.74-2.38,3.63-2.79,3.63S169,68,167.87,65.44L160,24.14l-.13-.31c-2.74-6.47-6.53-7.44-8.55-7.44s-5.81,1-8.54,7.44l-.17.4s-6.9,56.83-6.87,56.83l-2.31,30c-1.1,2.39-2.21,3.18-2.59,3.18s-1.5-.79-2.6-3.18L120.44,9.66l0-.5-.19-.47c-2.74-6.47-6.53-7.44-8.55-7.44s-5.81,1-8.54,7.44l-.19.45L95.07,95.87c-1.1,2.4-2.21,3.2-2.6,3.2s-1.51-.8-2.61-3.23L82,24.25l-.18-.42c-2.74-6.47-6.53-7.44-8.55-7.44s-5.8,1-8.54,7.44l-.13.31-7.86,41.3c-1.12,2.52-2.27,3.34-2.66,3.34s-1.63-.89-2.79-3.63l-9.1-21.54L42,43.38a14.31,14.31,0,0,0-2.8-3.46,9.86,9.86,0,0,0-5-1.42L4.38,38.37h0a3.15,3.15,0,0,0,0,6.3l29.58.09a12,12,0,0,1,1.6.24c.27.33.72,1,1.11,1.54l8.89,21C48.27,74.06,52.06,75,54.08,75h0c2,0,5.81-1,8.54-7.44l.13-.3L70.61,26c1.12-2.51,2.27-3.33,2.66-3.33s1.52.8,2.62,3.22l7.86,71.59.18.42c2.73,6.47,6.52,7.44,8.54,7.44s5.81-1,8.54-7.44l.19-.45,7.86-86.73c1.1-2.4,2.21-3.19,2.6-3.19s1.5.78,2.6,3.17L122.07,112l0,.51.2.46c2.74,6.48,6.53,7.44,8.55,7.44s5.8-1,8.54-7.44l.2-.46,2.56-33.25,6.56-53.42c1.11-2.44,2.23-3.24,2.62-3.24s1.55.82,2.67,3.33l7.86,41.31.12.4c2.74,6.47,6.53,7.54,8.55,7.54h0c2,0,5.81-1.07,8.54-7.54L187,49c1.15-2.74,2.38-3.65,2.79-3.65s1.63.87,2.79,3.61l5.78,13.69.16.32a15,15,0,0,0,3.17,4.26,9.25,9.25,0,0,0,4.23,1.36l.17,0h26.7a3.13,3.13,0,0,0,0-6.25Z"/></svg>