<?xml version="1.0" encoding="utf-8"?>
<!-- Generator: Adobe Illustrator 22.0.1, SVG Export Plug-In . SVG Version: 6.00 Build 0)  -->
<svg version="1.1" id="Layer_1" xmlns="http://www.w3.org/2000/svg" xmlns:xlink="http://www.w3.org/1999/xlink" x="0px" y="0px"
	 viewBox="0 0 314.9 339.6" style="enable-background:new 0 0 314.9 339.6;" xml:space="preserve">
<style type="text/css">
	.st0{fill:#FFFFFF;}
	.st1{fill:none;stroke:#888888;stroke-width:7;stroke-miterlimit:10;}
</style>
<g>
	<path class="st0" d="M307.7,205.8l-0.1,34H170.9l0.1-34.4c1.2,13.9,31.3,25.2,68.4,25.2C276.1,230.6,306.1,219.6,307.7,205.8z"/>
	<path class="st0" d="M170.9,137.8v1.5C170.9,138.8,170.9,138.3,170.9,137.8L170.9,137.8z"/>
	<path class="st0" d="M170.9,174.1c1.6,13.8,31.6,24.8,68.4,24.8v5.7h-68.4L170.9,174.1z"/>
	<path class="st0" d="M307.8,137.8l-0.1,35.2H170.9v-33.7c2,13.7,31.8,24.5,68.3,24.5C277.2,163.8,307.8,152.1,307.8,137.8z"/>
	<path class="st0" d="M170.9,204.6v0.8C170.9,205.2,170.9,204.9,170.9,204.6L170.9,204.6z"/>
	<path class="st0" d="M307.7,173.8c-1.2,13.9-31.3,25.2-68.4,25.2c-36.8,0-66.8-11-68.4-24.8V173h136.8V173.8z"/>
	<path class="st0" d="M5.6,197.9v1C5.5,198.6,5.5,198.2,5.6,197.9L5.6,197.9z"/>
	<path class="st0" d="M171,106.1h136.8c0,14.4-30.7,26-68.5,26c-36.4,0-66.1-10.7-68.3-24.3V106.1L171,106.1z"/>
	<path class="st0" d="M307.7,204.6v1.2c-1.6,13.8-31.6,24.8-68.4,24.8c-37.1,0-67.3-11.2-68.4-25.2v-0.8h68.4H307.7z"/>
	<path class="st0" d="M74,192.3v5.7H5.6l0.1-30.2C7.6,181.4,37.4,192.3,74,192.3z"/>
	<path class="st0" d="M142.5,233.1c0,14.3-30.7,26-68.5,26S5.6,247.5,5.5,233.2l0,0h136.8L142.5,233.1L142.5,233.1L142.5,233.1z"/>
	<path class="st0" d="M142.4,197.9v1c-1.4,13.9-31.5,25-68.4,25s-67-11.1-68.4-25v-1H74H142.4L142.4,197.9L142.4,197.9z"/>
	<path class="st0" d="M307.9,36l-0.1,32.7h-0.1H171V36c2.8,13.4,32.3,23.9,68.3,23.9c36.1,0,65.6-10.6,68.3-24L307.9,36z"/>
	<path class="st0" d="M170.9,173v1.2C170.9,173.8,170.9,173.4,170.9,173L170.9,173z"/>
	<path class="st0" d="M5.7,166.3v1.4C5.6,167.2,5.6,166.7,5.7,166.3L5.7,166.3z"/>
	<path class="st0" d="M307.7,173.8v30.8h-68.4V199C276.4,199,306.6,187.7,307.7,173.8z"/>
	<path class="st0" d="M5.7,128.8h136.7c0,14.3-30.7,26-68.5,26c-36.3,0-65.9-10.7-68.3-24.2L5.7,128.8L5.7,128.8z"/>
	<path class="st0" d="M239.3,132.1v5.7H171v-30C173.2,121.4,203,132.1,239.3,132.1z"/>
	<path class="st0" d="M142.5,166.3L142.5,166.3c-0.1,14.4-30.7,26-68.5,26c-36.6,0-66.4-10.9-68.3-24.6v-1.4L142.5,166.3
		L142.5,166.3z"/>
	<path class="st0" d="M142.5,166.3l-0.1,31.6H74v-5.7C111.7,192.3,142.3,180.6,142.5,166.3z"/>
	<path class="st0" d="M307.8,106.1v31.6h-68.5V132C277.2,132.1,307.8,120.5,307.8,106.1L307.8,106.1z"/>
	<path class="st0" d="M142.4,197.9L142.4,197.9c0.1,0.4,0.1,0.7,0,1V197.9z"/>
	<path class="st0" d="M171,68.7v1.9c-0.1-0.6-0.1-1.2-0.1-1.9H171z"/>
	<path class="st0" d="M142.5,94.1c0,0.7-0.1,1.3-0.2,2c-2.7,13.4-32.2,24-68.3,24c-36,0-65.5-10.5-68.3-23.9c-0.1-0.7-0.2-1.4-0.2-2
		c0-14.4,30.7-26,68.5-26S142.5,79.8,142.5,94.1z"/>
	<path class="st0" d="M239.3,137.8h68.5c0,14.4-30.7,26-68.5,26c-36.6,0-66.4-10.9-68.3-24.5v-1.5H239.3L239.3,137.8z"/>
	<path class="st0" d="M5.7,128.8v1.8C5.6,130,5.6,129.4,5.7,128.8L5.7,128.8z"/>
	<path class="st0" d="M142.4,198.9l-0.1,34.2H5.5l0.1-34.2c1.4,13.9,31.5,25,68.4,25S141,212.8,142.4,198.9z"/>
	<path class="st0" d="M171,68.7h136.7c0,14.4-30.7,26-68.5,26c-36.1,0-65.8-10.7-68.3-24.1v-1.9H171z"/>
	<path class="st0" d="M307.9,68.7v37.4l0,0H171l0.1-35.6c2.5,13.5,32.1,24.1,68.3,24.1C277.2,94.6,307.8,83,307.9,68.7L307.9,68.7z"
		/>
	<path class="st0" d="M142.5,96.2l-0.1,32.7h-0.1H5.7l0.1-32.7c2.8,13.4,32.3,23.9,68.3,23.9c36.1,0,65.6-10.6,68.3-24L142.5,96.2z"
		/>
	<path class="st0" d="M307.8,33.9c0,0.7-0.1,1.3-0.2,2c-2.7,13.4-32.2,24-68.3,24c-36,0-65.5-10.5-68.3-23.9c-0.1-0.7-0.2-1.4-0.2-2
		c0-14.3,30.7-26,68.5-26C277.2,7.9,307.8,19.5,307.8,33.9z"/>
	<path class="st0" d="M307.7,239.8L307.7,239.8c0.1,14.4-30.6,26-68.4,26s-68.4-11.6-68.5-26l0,0H307.7z"/>
	<path class="st0" d="M307.7,204.6L307.7,204.6c0.1,0.4,0.1,0.8,0,1.2V204.6z"/>
	<path class="st0" d="M171,106.1v1.6c-0.1-0.5-0.1-1.1-0.1-1.6H171z"/>
	<path class="st0" d="M142.5,128.8l-0.1,37.4H5.7l0.1-35.7c2.4,13.5,32,24.2,68.3,24.2C111.8,154.8,142.5,143.2,142.5,128.8
		L142.5,128.8z"/>
	<path class="st0" d="M307.7,173L307.7,173c0.1,0.3,0,0.6,0,0.8V173z"/>
</g>
<g>
	<path class="st1" d="M5.5,128.8c0,0.6,0.1,1.2,0.1,1.8c2.4,13.5,32,24.2,68.3,24.2c37.8,0,68.5-11.6,68.5-26"/>
	<path class="st1" d="M5.5,166.3c0,0.4,0,0.9,0.1,1.4c2,13.7,31.8,24.6,68.3,24.6c37.7,0,68.3-11.6,68.5-25.9"/>
	<path class="st1" d="M5.5,197.9c0,0.4,0,0.7,0.1,1c1.4,13.9,31.5,25,68.4,25s67-11.1,68.4-25c0.1-0.3,0.1-0.7,0.1-1"/>
	<path class="st1" d="M5.5,233.1C5.6,247.4,36.2,259,74,259s68.5-11.6,68.5-26"/>
	<path class="st1" d="M5.7,96.2c-0.1-0.7-0.2-1.4-0.2-2c0-14.4,30.7-26,68.5-26s68.5,11.6,68.5,26c0,0.7-0.1,1.3-0.2,2
		c-2.7,13.4-32.2,24-68.3,24C38,120.1,8.5,109.5,5.7,96.2z"/>
	<polyline class="st1" points="5.7,96.2 5.7,128.8 5.7,130.6 5.7,166.3 5.7,167.7 5.6,197.9 5.6,198.9 5.5,233.1 5.5,233.1 
		5.5,233.9 	"/>
	<polyline class="st1" points="142.5,96.2 142.5,128.8 142.5,166.3 142.5,166.3 142.4,197.9 142.4,198.9 142.3,233.1 142.3,233.9 	
		"/>
	<path class="st1" d="M170.9,68.7c0,0.7,0.1,1.2,0.1,1.9c2.5,13.5,32.1,24.1,68.3,24.1c37.8,0,68.5-11.6,68.5-26"/>
	<path class="st1" d="M170.9,106.1c0,0.6,0.1,1.1,0.1,1.6c2.2,13.6,32,24.3,68.3,24.3c37.8,0,68.5-11.6,68.5-26"/>
	<path class="st1" d="M170.9,137.8c0,0.5,0.1,0.9,0.1,1.5c2,13.7,31.8,24.5,68.3,24.5c37.8,0,68.5-11.6,68.5-26"/>
	<path class="st1" d="M170.9,173c0,0.4,0,0.8,0.1,1.2c1.6,13.8,31.6,24.8,68.4,24.8c37.1,0,67.2-11.2,68.4-25.2
		c0-0.3,0.1-0.6,0.1-0.8"/>
	<path class="st1" d="M170.9,204.6c0,0.3,0,0.6,0.1,0.8c1.2,13.9,31.3,25.2,68.4,25.2c36.8,0,66.7-11,68.4-24.8
		c0.1-0.4,0.1-0.8,0.1-1.2"/>
	<path class="st1" d="M170.9,239.8c0,14.3,30.7,26,68.5,26s68.5-11.6,68.5-26"/>
	<path class="st1" d="M171.1,36c-0.1-0.7-0.2-1.4-0.2-2c0-14.3,30.7-26,68.5-26s68.5,11.6,68.5,26c0,0.7-0.1,1.3-0.2,2
		c-2.7,13.4-32.2,24-68.3,24C203.3,59.9,173.9,49.4,171.1,36z"/>
	<polyline class="st1" points="171.1,36 171,68.7 171,70.6 171,106.1 171,107.8 170.9,137.8 170.9,139.2 170.9,173 170.9,174.1 
		170.9,204.6 170.9,205.4 170.9,239.8 170.9,239.8 170.9,240.6 	"/>
	<polyline class="st1" points="307.9,36 307.9,68.7 307.8,106.1 307.8,137.8 307.7,173 307.7,173.8 307.7,204.6 307.7,205.8 
		307.7,239.8 307.7,240.6 	"/>
</g>
<g>
	<path class="st0" d="M229,168.7l-0.1,32.7h-0.1H92.1l0.1-32.7c2.8,13.4,32.3,23.9,68.3,23.9c36.1,0,65.6-10.6,68.3-24L229,168.7z"
		/>
	<path class="st0" d="M229,201.3l-0.1,37.4H92.1l0.1-35.7c2.4,13.5,32,24.2,68.3,24.2C198.2,227.3,228.9,215.7,229,201.3L229,201.3z
		"/>
	<path class="st0" d="M228.9,238.8L228.9,238.8c-0.1,14.4-30.7,26-68.5,26c-36.6,0-66.4-10.9-68.3-24.5v-1.5H228.9z"/>
	<path class="st0" d="M228.9,238.8l-0.1,31.6h-68.4v-5.7C198.2,264.7,228.8,253.2,228.9,238.8z"/>
	<path class="st0" d="M92.1,201.3h136.7c0,14.3-30.7,26-68.5,26c-36.3,0-65.9-10.7-68.3-24.2L92.1,201.3L92.1,201.3z"/>
	<path class="st0" d="M228.8,270.4L228.8,270.4c0.1,0.4,0,0.7,0,1V270.4z"/>
	<path class="st0" d="M228.9,305.6c0,14.3-30.7,26-68.5,26S92,320,91.9,305.7v-0.1h136.8H228.9z"/>
	<path class="st0" d="M228.8,270.4v1c-1.4,13.9-31.5,25-68.4,25s-67-11.1-68.4-25v-1h68.4H228.8z"/>
	<path class="st0" d="M228.8,271.5l-0.1,34.2H91.9l0.1-34.2c1.4,13.9,31.5,25,68.4,25S227.4,285.3,228.8,271.5z"/>
	<path class="st0" d="M228.9,166.6c0,0.7-0.1,1.3-0.2,2c-2.7,13.4-32.2,24-68.3,24c-36,0-65.5-10.5-68.3-23.9
		c-0.1-0.7-0.2-1.4-0.2-2c0-14.4,30.7-26,68.5-26S228.9,152.2,228.9,166.6z"/>
	<path class="st0" d="M160.4,264.7v5.7H92l0.1-30.2C94,253.9,123.8,264.7,160.4,264.7z"/>
	<path class="st0" d="M92.1,201.3v1.8c-0.1-0.6-0.1-1.2-0.1-1.8H92.1z"/>
	<path class="st0" d="M92.1,238.8v1.5C92,239.8,92,239.3,92.1,238.8L92.1,238.8z"/>
	<path class="st0" d="M92,270.4v1C91.9,271.1,91.9,270.8,92,270.4L92,270.4z"/>
</g>
<g>
	<path class="st1" d="M91.9,201.3c0,0.6,0.1,1.2,0.1,1.8c2.4,13.5,32,24.2,68.3,24.2c37.8,0,68.5-11.6,68.5-26"/>
	<path class="st1" d="M91.9,238.8c0,0.4,0,0.9,0.1,1.5c2,13.7,31.8,24.5,68.3,24.5c37.7,0,68.4-11.6,68.5-25.9"/>
	<path class="st1" d="M91.9,270.4c0,0.4,0,0.7,0.1,1c1.4,13.9,31.5,25,68.4,25s67-11.1,68.4-25c0-0.3,0.1-0.7,0.1-1"/>
	<path class="st1" d="M91.9,305.7c0.1,14.3,30.7,25.9,68.5,25.9s68.5-11.6,68.5-26"/>
	<path class="st1" d="M92.2,168.7c-0.1-0.7-0.2-1.4-0.2-2c0-14.4,30.7-26,68.5-26s68.5,11.6,68.5,26c0,0.7-0.1,1.3-0.2,2
		c-2.7,13.4-32.2,24-68.3,24C124.4,192.5,94.9,182,92.2,168.7z"/>
	<polyline class="st1" points="92.2,168.7 92.1,201.3 92.1,203.1 92.1,238.8 92.1,240.2 92,270.4 92,271.5 91.9,305.6 91.9,305.7 
		91.9,306.4 	"/>
	<polyline class="st1" points="229,168.7 229,201.3 228.9,238.8 228.9,238.8 228.8,270.4 228.8,271.5 228.8,305.6 228.8,306.4 	"/>
</g>
</svg>
