<?xml version="1.0" encoding="utf-8"?>
<!-- Generator: Adobe Illustrator 22.0.1, SVG Export Plug-In . SVG Version: 6.00 Build 0)  -->
<svg version="1.1" id="Layer_1" xmlns="http://www.w3.org/2000/svg" xmlns:xlink="http://www.w3.org/1999/xlink" x="0px" y="0px"
	 viewBox="0 0 91.7 92" style="enable-background:new 0 0 91.7 92;" xml:space="preserve">
<style type="text/css">
	.st0{fill:#888888;stroke:#FFFFFF;stroke-width:2;stroke-miterlimit:10;}
</style>
<g>
	<path class="st0" d="M90.7,46c0.3-16-3.3-28.3-10.1-34.7C73.6,4.5,62,1,46,1h-0.6C21.6,1,13.8,8.7,11.2,11.3l-0.1,0.1
		C4.3,17.8,0.7,30.1,1,46C0.7,61.9,4.3,74.2,11.1,80.5c1.2,1.2,3.9,3.9,9.5,6.2c0,0,0,0,0,0c6.9,2.9,15.2,4.3,24.8,4.3c0,0,0,0,0,0
		H46c9.6,0,18.1-1.5,25.1-4.4c5.7-2.3,8.5-5.1,9.5-6.1C87.4,74.2,91,61.9,90.7,46z M45.4,87c-8.6,0-16.1-1.2-22.4-3.7
		c-0.5-1.9-0.8-4.1-0.9-6.6l0-0.3c0-1.1,0-2.1,0-3.1c0.2-6.2,1.6-10.1,4.6-12.8c6.3-5.1,19.8-4.5,20-4.4c4.2,0,8,0.5,11.3,1.4
		c4.1,0.9,9.8,3.1,10.9,11.4c0,0,0,0.1,0,0.1c0.3,1.8,0.5,3.9,0.5,6.2c0,2.3-0.1,4.3-0.5,6.2c0,0,0,0.1,0,0.1
		c-0.1,0.6-0.2,1.2-0.4,1.7C62.3,85.7,54.7,87,46,87H45.4z M77.8,77.7c-0.7,0.7-2.1,2.1-4.7,3.5c0.3-1.9,0.4-3.9,0.4-6
		c0-2.5-0.2-4.8-0.5-6.9c-1.1-7.9-5.8-12.9-13.9-14.7c-3.6-1-7.7-1.5-12.2-1.5c-0.6,0-15.2-0.7-22.7,5.4c-3.9,3.5-5.8,8.4-6.1,15.7
		c-0.1,1.1,0,2.2,0,3.3l0,0.3c0,1.6,0.2,3.1,0.3,4.4c-2.5-1.4-3.8-2.8-4.7-3.6C7.9,72,4.7,60.8,5,46c-0.3-14.8,2.9-26.1,8.9-31.7
		l0.1-0.1C16.3,11.9,23.2,5,45.4,5H46c14.9,0,25.6,3.1,31.8,9.2c0,0,0.1,0.1,0.1,0.1c6,5.6,9.1,16.9,8.9,31.7c0,0,0,0.1,0,0.1
		C87,60.8,83.9,72,77.8,77.7z"/>
	<path class="st0" d="M45.8,19c-8.7,0-15.7,7-15.7,15.6s7,15.6,15.7,15.6c8.7,0,15.7-7,15.7-15.6S54.5,19,45.8,19z M45.8,46.2
		c-6.5,0-11.7-5.2-11.7-11.6S39.4,23,45.8,23c6.5,0,11.7,5.2,11.7,11.6S52.3,46.2,45.8,46.2z"/>
</g>
</svg>
